<?xml version="1.0" encoding="UTF-8"?>
<!DOCTYPE svg PUBLIC "-//W3C//DTD SVG 1.1//EN" "http://www.w3.org/Graphics/SVG/1.1/DTD/svg11.dtd">
<!-- Creator: CorelDRAW -->
<svg xmlns="http://www.w3.org/2000/svg" xml:space="preserve" width="75.184mm" height="120.136mm" version="1.1" style="shape-rendering:geometricPrecision; text-rendering:geometricPrecision; image-rendering:optimizeQuality; fill-rule:evenodd; clip-rule:evenodd"
viewBox="0 0 804.23 1285.07"
 xmlns:xlink="http://www.w3.org/1999/xlink"
 xmlns:xodm="http://www.corel.com/coreldraw/odm/2003">
 <defs>
  <style type="text/css">
   <![CDATA[
    .fil1 {fill:#0B3B01}
    .fil6 {fill:#342921}
    .fil3 {fill:#D9CDAA}
    .fil5 {fill:#E1325D}
    .fil0 {fill:#F3D114}
    .fil2 {fill:#FFCD0D}
    .fil4 {fill:#FFCD0D;fill-rule:nonzero}
   ]]>
  </style>
 </defs>
 <g id="Layer_x0020_1">
  <metadata id="CorelCorpID_0Corel-Layer"/>
  <g id="_1864067385360">
   <path class="fil0" d="M804.23 882.96c0,221.93 -180.19,402.11 -402.11,402.11 -221.93,0 -402.11,-180.19 -402.11,-402.11l0 -882.96 804.23 0 0 882.96z"/>
   <path class="fil1" d="M773.7 882.96c0,205.07 -166.49,371.59 -371.59,371.59 -205.07,0 -371.59,-166.49 -371.59,-371.59l0 -850.72 743.15 0 0 850.72 0.02 0z"/>
   <polygon class="fil0" points="30.53,382.78 30.53,331.64 402.11,218.42 773.7,331.64 773.7,382.78 402.11,269.56 "/>
   <polygon class="fil0" points="30.53,462.53 30.53,411.39 402.11,298.16 773.7,411.39 773.7,462.53 402.11,349.3 "/>
   <path class="fil2" d="M616.03 498.75c60.54,0 47.57,64.54 47.57,64.54l-60.76 0 0 -18.09 38.19 0c0,-29.93 -25.01,-27.92 -25.01,-27.92l0 -18.55 0.02 0.02zm-61.65 10.95l-0.66 64.34c-5.14,23.67 -41.76,21.44 -41.76,21.44l-6.03 -18.32c0,0 6.03,-0.23 16.75,-1.34 10.72,-1.12 8.94,-12.72 8.94,-12.72l0 -53.39 22.78 0 -0.02 0zm35.77 -35.05l0 88.67 -23.01 0 0 -88.67 23.01 0zm-99.86 0l0 88.67 -23.01 0 0 -88.67 23.01 0zm-230.05 70.55l66.55 0c0,-30.84 -38.42,-27.64 -38.42,-27.64l0 -19.02c65.23,0 61.88,46.66 61.88,46.66l28.36 0 0 -35.5 23.01 0 0 35.5 29.04 0 0 -70.57 23.01 0 0 88.67 -216.64 0 0 -88.67 23.24 0 0 70.57 -0.02 0zm-120.68 18.09l-0.02 0 0 -18.09 62.04 0c0,-30.84 -38.42,-27.64 -38.42,-27.64l0 -19.02c65.23,0 61.88,46.66 61.88,46.66l0.02 0 0 18.09 -62.04 0c-2.42,21.07 24.68,19.7 37.53,20.26l-6.42 18.59c-59.19,0.45 -54.55,-38.85 -54.55,-38.85l-0.02 0zm167.84 14c6.86,0 12.43,5.58 12.43,12.43 0,6.86 -5.58,12.43 -12.43,12.43 -6.86,0 -12.43,-5.58 -12.43,-12.43 0,-6.86 5.58,-12.43 12.43,-12.43zm82.37 -106.68c6.86,0 12.43,5.58 12.43,12.43 0,6.86 -5.58,12.43 -12.43,12.43 -6.86,0 -12.43,-5.58 -12.43,-12.43 0,-6.86 5.58,-12.43 12.43,-12.43z"/>
   <polygon class="fil3" points="720.17,32.26 628.07,32.26 628.07,174.48 674.13,145.28 720.17,174.48 "/>
   <path class="fil3" d="M307.15 847.95l0 -151.11c0,-7.68 3.06,-15.04 8.49,-20.47 5.43,-5.43 12.81,-8.49 20.47,-8.49l154.39 0c1.76,0 3.45,0.7 4.69,1.94 1.24,1.24 1.94,2.93 1.94,4.69l0 166.68c0,1.8 -0.7,3.51 -1.98,4.77 -1.26,1.26 -2.97,1.98 -4.77,1.98l-164.82 0c-2.35,0 -4.26,1.9 -4.26,4.25 0,6.22 0,17.08 0,17.08 0,6.8 5.52,12.29 12.29,12.29l151.13 0 0 -15.64c0,-1.69 0.66,-3.3 1.86,-4.5 1.2,-1.2 2.81,-1.86 4.5,-1.86l0.08 0c1.57,0 3.1,0.62 4.19,1.74 1.12,1.12 1.74,2.62 1.74,4.19l0 21.29c0,3.24 -2.62,5.89 -5.89,5.89l-156.1 0c-15.47,0 -28.01,-12.54 -28.01,-28.01l0 -16.73 0.06 0z"/>
   <path class="fil1" d="M381.6 777.69l18.65 0c-1.57,-21.21 10.24,-28.4 20.1,-28.4l19.48 0 0 29.18c0,2.85 -1.14,5.58 -3.14,7.58 -2,2 -4.73,3.14 -7.58,3.14l-47.63 0 -0.06 6.61c-3.14,14.48 -25.55,13.12 -25.55,13.12l-3.7 -11.21c0,0 3.7,-0.15 10.24,-0.83 6.57,-0.68 5.47,-7.79 5.47,-7.79l0 -32.67 13.94 0 -0.23 21.25 0 0.02zm33.25 -0.29l10.55 0 0 -16.5c0,0 -10.35,-0.41 -10.35,6.57 0,6.98 -0.21,9.93 -0.21,9.93zm47.05 -42.69l0 54.51 -14.21 0 0 -54.51 14.21 0zm-101.87 0l0 54.51 -14.21 0 0 -54.51 14.21 0zm-17.7 -5l0 -7.89 3.51 0c0,-16.3 15.86,-15.37 15.86,-15.37l0 7.99c-8.92,0 -7.48,7.48 -7.48,7.48l7.58 0 0 7.79 -19.48 0zm74.04 0c3.16,0 5.72,2.56 5.72,5.72 0,3.16 -2.56,5.72 -5.72,5.72 -3.16,0 -5.72,-2.56 -5.72,-5.72 0,-3.16 2.56,-5.72 5.72,-5.72zm13.34 0c3.16,0 5.72,2.56 5.72,5.72 0,3.16 -2.56,5.72 -5.72,5.72 -3.16,0 -5.72,-2.56 -5.72,-5.72 0,-3.16 2.56,-5.72 5.72,-5.72z"/>
   <path class="fil0" d="M175.7 1057.01c6.46,0.89 14.73,1.88 21.52,2.27 2.15,0.1 4.3,0.14 6.44,0.16 2.17,-0.02 4.32,-0.06 6.44,-0.16 6.79,-0.39 15.08,-1.38 21.52,-2.27 11.86,-2 23.32,-5.21 34.22,-9.48 11.24,-4.4 21.89,-9.91 31.85,-16.44 9.96,6.53 20.61,12.04 31.85,16.44 19.66,7.7 41.06,11.92 63.45,11.92 30.24,0 58.68,-7.7 83.46,-21.25 9.73,-5.33 18.9,-11.55 27.39,-18.55 8.49,7 17.66,13.24 27.39,18.55 15.35,8.39 32.1,14.54 49.8,18.01 7.31,1.09 20.9,2.93 30.2,3.22 0.93,0.02 1.88,0.02 2.81,0.04 1.24,0 2.46,-0.02 3.7,-0.04 2.13,-0.06 4.52,-0.19 6.65,-0.29 18.4,-1.14 36.04,-5.14 52.46,-11.59 11.24,-4.4 21.89,-9.91 31.85,-16.44 9.95,6.53 20.61,12.04 31.85,16.44 1.3,0.52 3.9,1.47 3.9,1.47 -3.14,12.76 -10.97,21.3 -24.89,24.37 0,0 -7.31,-3.41 -10.86,-5.27 -24.76,12.93 -52.48,20.98 -81.87,22.88 -3.41,0.23 -9.48,0.35 -12.12,0.41l-0.02 0.02c0,0 -0.14,0 -0.43,-0.02 -0.56,0.02 -0.87,0.02 -0.87,0.02l-0.06 -0.04c-4.5,-0.19 -19.25,-0.81 -27.06,-1.9 -30.03,-4.13 -58,-14.75 -82.43,-30.36 -32.01,20.45 -70.04,32.3 -110.85,32.3 -34.39,0 -66.8,-8.43 -95.3,-23.3 -24.76,12.93 -52.48,20.98 -81.87,22.88 -2.93,0.19 -7.87,0.31 -10.86,0.37l-0.04 0.04c0,0 -0.47,0 -1.26,-0.02 -0.79,0.02 -1.26,0.02 -1.26,0.02l-0.04 -0.04c-3,-0.06 -7.93,-0.19 -10.86,-0.37 -29.39,-1.9 -57.11,-9.93 -81.87,-22.88 -7.62,3.99 -23.67,10.51 -23.67,10.51 -13.01,-4.65 -21.79,-12.97 -26.17,-25.16 0,0 12.15,-3.63 17.99,-5.93 11.24,-4.4 21.89,-9.91 31.85,-16.44 9.96,6.53 20.61,12.04 31.85,16.44 10.91,4.28 22.37,7.48 34.22,9.48l0.02 -0.04z"/>
   <path class="fil0" d="M175.7 1153.07c6.46,0.89 14.73,1.88 21.52,2.27 2.15,0.1 4.3,0.14 6.44,0.17 2.17,-0.02 4.32,-0.06 6.44,-0.17 6.79,-0.39 15.08,-1.38 21.52,-2.27 11.86,-2 23.32,-5.2 34.22,-9.48 11.24,-4.4 21.89,-9.91 31.85,-16.44 9.96,6.53 20.61,12.04 31.85,16.44 19.66,7.7 41.06,11.92 63.45,11.92 30.24,0 58.68,-7.7 83.46,-21.25 9.73,-5.33 18.9,-11.55 27.39,-18.55 8.49,7 17.66,13.24 27.39,18.55 15.35,8.39 32.1,14.54 49.8,18.01 7.31,1.1 20.9,2.93 30.2,3.22 0.93,0.02 1.88,0.02 2.81,0.04 1.24,0 2.46,-0.02 3.7,-0.04 2.13,-0.06 4.52,-0.19 6.65,-0.29 18.4,-1.14 36.04,-5.14 52.46,-11.59 11.24,-4.4 21.89,-9.91 31.85,-16.44 9.95,6.53 -21.89,47.26 -33.56,50.91 -15.41,4.83 -31.58,7.89 -48.31,8.98 -3.41,0.23 -9.48,0.35 -12.12,0.41l-0.02 0.02c0,0 -0.14,0 -0.43,-0.02 -0.56,0.02 -0.87,0.02 -0.87,0.02l-0.06 -0.04c-4.5,-0.19 -19.25,-0.81 -27.06,-1.9 -30.03,-4.13 -58,-14.75 -82.43,-30.36 -32.01,20.45 -70.04,32.3 -110.85,32.3 -34.39,0 -66.8,-8.43 -95.3,-23.3 -24.76,12.93 -52.48,20.98 -81.87,22.88 -2.93,0.19 -7.87,0.31 -10.86,0.37l-0.04 0.04c0,0 -0.47,0 -1.26,-0.02 -0.79,0.02 -1.26,0.02 -1.26,0.02l-0.04 -0.04c-3,-0.06 -7.93,-0.19 -10.86,-0.37 -21.13,-1.36 -41.39,-5.91 -60.31,-13.16 -7.39,-2.83 -31.52,-40.21 -21.56,-46.74 9.96,6.53 20.61,12.04 31.85,16.44 10.91,4.28 22.37,7.48 34.22,9.48l0.02 -0.04z"/>
   <path class="fil4" d="M151.89 912.31c12,24.06 36,46.91 61.24,56.65 12.68,4.87 23.57,6.3 32.39,4.94 8.72,-1.28 15.08,-5.1 18.82,-10.66 -15.37,-17.18 -37.12,-34 -60.27,-45.71 -5.74,-2.95 -11.32,-5.27 -16.56,-6.96 -5.1,-1.82 -9.94,-2.99 -14.38,-3.49 -8.9,-1.01 -16.32,0.64 -21.23,5.23z"/>
   <g>
    <path class="fil4" d="M124.36 826.99c1.45,5.35 3.04,10.99 5.62,16.36 2.54,5.39 5.47,10.74 8.74,15.84 3.3,5.08 7.35,9.77 11.38,14.13 4.01,4.4 8.49,8.24 13.24,11.46 4.67,3.26 9.15,5.74 13.34,7.52 4.32,1.69 8.41,2.66 12.1,3 7.42,0.68 13.38,-1.16 17.56,-4.98 -2.17,-4.34 -5.04,-8.55 -7.85,-12.93 -2.83,-4.38 -6.03,-8.67 -9.56,-12.83 -6.55,-8.55 -14.77,-16.46 -22.84,-23.57 -4.17,-3.51 -8.28,-6.47 -12.29,-8.84 -3.86,-2.42 -7.54,-4.3 -11.09,-5.53 -7.06,-2.48 -13.45,-2.48 -18.36,0.33l0.02 0.04zm0 0l0 0 0 0z"/>
   </g>
   <g>
    <path class="fil4" d="M118.33 748.71c0.43,8.63 2.11,17.99 5.84,26.83 1.76,4.44 3.8,8.74 6.09,12.81 2.46,4.03 5.31,7.77 8.28,11.11 11.71,13.55 24.56,16.69 32.32,12.45 -3.86,-15.06 -11.5,-32.03 -22.24,-45.75 -10.62,-13.65 -21.54,-20.26 -30.3,-17.47l0 0.02zm0 0l0 0 0 0z"/>
   </g>
   <path class="fil4" d="M128.86 697.05c-0.37,5.64 -0.25,11.86 1.3,17.93 1.57,6.07 3.92,12.02 7.02,17.08 6.13,10.16 14.33,14 20.03,12.23 -0.12,-2.64 -0.47,-5.39 -1.03,-8.18 -0.37,-2.81 -0.95,-5.66 -1.71,-8.49 -1.53,-5.68 -3.94,-11.3 -6.94,-16.36 -5.51,-10.14 -12.62,-15.3 -18.67,-14.21z"/>
   <g>
    <path class="fil4" d="M252.5 853.94c10.76,15.94 19.39,37.65 22.99,60.58 3.55,22.78 0.21,40.87 -10.95,48.5 -17.47,-15.08 -31.19,-40.56 -32.7,-64.77 -0.35,-6.07 -0.08,-11.57 0.74,-16.48 0.99,-5 2.5,-9.38 4.42,-13.1 3.82,-7.46 9.25,-12.37 15.49,-14.75l0 0.02zm0 0l0 0 0 0z"/>
   </g>
   <path class="fil4" d="M218.02 797.89c5.78,15.55 8.92,35.19 7.29,54.71 -0.39,4.87 -1.16,9.4 -2.23,13.57 -0.95,4.09 -2.19,7.77 -3.76,11.01 -3.12,6.44 -7.44,11.03 -12.7,12.99 -2.71,-4.03 -5.45,-8.32 -7.46,-13.12 -2.02,-4.79 -3.78,-9.85 -5.14,-14.99 -2.23,-10.51 -3.3,-21.27 -1.34,-31.48 0.87,-5.06 2.11,-9.52 3.7,-13.4 1.71,-3.92 3.86,-7.27 6.11,-10 4.56,-5.45 9.98,-8.51 15.53,-9.29z"/>
   <g>
    <path class="fil4" d="M196.54 740.7c1.26,6.84 1.22,14.46 0.89,22.14 -0.27,3.86 -0.85,7.79 -1.71,11.71 -0.7,3.88 -1.55,7.72 -2.81,11.52 -5.18,15.16 -12.62,24.72 -21.77,25.76 -5.78,-14.48 -5.91,-33.93 0.1,-49.24 6.11,-15.41 16.42,-22.53 25.28,-21.87l0.02 -0.02zm0 0l0 0 0 0z"/>
   </g>
   <path class="fil4" d="M182.44 698.27c0.31,4.94 -0.56,10.33 -1.61,15.7 -1.05,5.37 -2.89,10.74 -5.54,15.66 -5.33,9.85 -11.48,15.18 -17.76,14.64 -0.45,-2.6 -0.72,-5.37 -0.79,-8.18 0.12,-2.83 0.43,-5.74 0.95,-8.63 1.05,-5.78 2.83,-11.44 5.54,-16.38 5.91,-9.89 13.2,-14.02 19.21,-12.81z"/>
   <path class="fil4" d="M162.26 631.87c-5.47,5.72 -10.95,17.51 -12.41,31.87 -0.6,7.19 -0.37,13.96 0.54,19.75 0.99,5.8 3.08,10.64 5.33,14 2.5,-3.26 4.36,-7.87 6.15,-13.34 1.86,-5.47 3.22,-11.86 3.78,-18.75 1.42,-13.78 0.43,-26.09 -3.39,-33.52z"/>
   <g>
    <path class="fil4" d="M155.73 697.49c-2.25,22.35 -2.64,54.92 5.49,92.9 7.85,37.88 24.6,81.09 52.67,120.93 7.77,15.94 31,40.87 62.29,63.43 31.42,22.58 60.35,37.18 81.52,44.88 -19.83,-10.6 -47.07,-27.37 -76.83,-51.06 -29.68,-23.69 -43.97,-43.19 -58.18,-63.39 -27.26,-38.71 -44.41,-79.95 -53.91,-116.59 -9.77,-36.68 -12.1,-68.68 -13.03,-91.13l-0.02 0.02zm0 0l0 0 0 0z"/>
   </g>
   <path class="fil4" d="M652.36 912.31c-12,24.06 -36,46.91 -61.24,56.65 -12.68,4.87 -23.57,6.3 -32.39,4.94 -8.72,-1.28 -15.08,-5.1 -18.82,-10.66 15.37,-17.18 37.12,-34 60.27,-45.71 5.74,-2.95 11.32,-5.27 16.57,-6.96 5.1,-1.82 9.93,-2.99 14.37,-3.49 8.9,-1.01 16.32,0.64 21.23,5.23z"/>
   <g>
    <path class="fil4" d="M679.89 826.99c-1.45,5.35 -3.04,10.99 -5.62,16.36 -2.54,5.39 -5.47,10.74 -8.74,15.84 -3.31,5.08 -7.35,9.77 -11.38,14.13 -4.01,4.4 -8.49,8.24 -13.24,11.46 -4.67,3.26 -9.15,5.74 -13.34,7.52 -4.32,1.69 -8.41,2.66 -12.1,3 -7.41,0.68 -13.38,-1.16 -17.56,-4.98 2.17,-4.34 5.04,-8.55 7.85,-12.93 2.83,-4.38 6.03,-8.67 9.56,-12.83 6.55,-8.55 14.77,-16.46 22.84,-23.57 4.17,-3.51 8.28,-6.47 12.29,-8.84 3.86,-2.42 7.54,-4.3 11.09,-5.53 7.06,-2.48 13.45,-2.48 18.36,0.33l-0.02 0.04zm0 0l0 0 0 0z"/>
   </g>
   <g>
    <path class="fil4" d="M685.94 748.71c-0.43,8.63 -2.11,17.99 -5.85,26.83 -1.76,4.44 -3.8,8.74 -6.09,12.81 -2.46,4.03 -5.31,7.77 -8.28,11.11 -11.71,13.55 -24.56,16.69 -32.32,12.45 3.86,-15.06 11.5,-32.03 22.25,-45.75 10.62,-13.65 21.54,-20.26 30.3,-17.47l0 0.02zm0 0l0 0 0 0z"/>
   </g>
   <path class="fil4" d="M675.37 697.05c0.37,5.64 0.25,11.86 -1.3,17.93 -1.57,6.07 -3.92,12.02 -7.02,17.08 -6.13,10.16 -14.33,14 -20.03,12.23 0.12,-2.64 0.47,-5.39 1.03,-8.18 0.37,-2.81 0.95,-5.66 1.71,-8.49 1.53,-5.68 3.94,-11.3 6.94,-16.36 5.51,-10.14 12.62,-15.3 18.67,-14.21z"/>
   <g>
    <path class="fil4" d="M551.75 853.94c-10.76,15.94 -19.39,37.65 -22.99,60.58 -3.57,22.78 -0.21,40.87 10.95,48.5 17.47,-15.08 31.19,-40.56 32.7,-64.77 0.35,-6.07 0.08,-11.57 -0.74,-16.48 -0.99,-5 -2.5,-9.38 -4.42,-13.1 -3.82,-7.46 -9.25,-12.37 -15.49,-14.75l0 0.02zm0 0l0 0 0 0z"/>
   </g>
   <path class="fil4" d="M586.24 797.89c-5.78,15.55 -8.92,35.19 -7.29,54.71 0.39,4.87 1.16,9.4 2.23,13.57 0.95,4.09 2.19,7.77 3.76,11.01 3.12,6.44 7.44,11.03 12.7,12.99 2.71,-4.03 5.45,-8.32 7.46,-13.12 2.02,-4.79 3.78,-9.85 5.14,-14.99 2.23,-10.51 3.31,-21.27 1.34,-31.48 -0.87,-5.06 -2.11,-9.52 -3.7,-13.4 -1.71,-3.92 -3.86,-7.27 -6.11,-10 -4.56,-5.45 -9.98,-8.51 -15.53,-9.29z"/>
   <g>
    <path class="fil4" d="M607.7 740.7c-1.26,6.84 -1.22,14.46 -0.89,22.14 0.27,3.86 0.85,7.79 1.71,11.71 0.7,3.88 1.55,7.72 2.81,11.52 5.18,15.16 12.62,24.72 21.77,25.76 5.78,-14.48 5.91,-33.93 -0.1,-49.24 -6.11,-15.41 -16.42,-22.53 -25.28,-21.87l-0.02 -0.02zm0 0l0 0 0 0z"/>
   </g>
   <path class="fil4" d="M621.79 698.27c-0.31,4.94 0.56,10.33 1.61,15.7 1.05,5.37 2.89,10.74 5.54,15.66 5.33,9.85 11.48,15.18 17.76,14.64 0.45,-2.6 0.72,-5.37 0.79,-8.18 -0.12,-2.83 -0.43,-5.74 -0.95,-8.63 -1.05,-5.78 -2.83,-11.44 -5.54,-16.38 -5.91,-9.89 -13.2,-14.02 -19.21,-12.81z"/>
   <path class="fil4" d="M641.97 631.87c5.47,5.72 10.95,17.51 12.41,31.87 0.6,7.19 0.37,13.96 -0.54,19.75 -0.99,5.8 -3.08,10.64 -5.33,14 -2.5,-3.26 -4.36,-7.87 -6.15,-13.34 -1.86,-5.47 -3.22,-11.86 -3.78,-18.75 -1.42,-13.78 -0.43,-26.09 3.39,-33.52z"/>
   <g>
    <path class="fil4" d="M648.54 697.49c2.25,22.35 2.64,54.92 -5.49,92.9 -7.85,37.88 -24.6,81.09 -52.67,120.93 -7.77,15.94 -31,40.87 -62.29,63.43 -31.41,22.58 -60.35,37.18 -81.52,44.88 19.83,-10.6 47.07,-27.37 76.83,-51.06 29.68,-23.69 43.97,-43.19 58.18,-63.39 27.26,-38.71 44.41,-79.95 53.91,-116.59 9.77,-36.68 12.1,-68.68 13.03,-91.13l0.02 0.02zm0 0l0 0 0 0z"/>
   </g>
   <path class="fil5" d="M240.27 167.28c24.29,-19.87 58.76,-35.53 105.36,-46.12 18.86,-9.44 37.67,-18.82 56.49,-28.25 18.82,9.44 37.63,18.82 56.49,28.25 46.6,10.6 81.07,26.25 105.36,46.12 39.18,22.16 75.24,49.18 107.4,80.24 -35.17,-20.88 -72.97,-37.8 -112.77,-50.15 -19.35,-1.84 -38.73,1.34 -58.08,10.18 -34.27,-18.01 -67.06,-19.25 -98.4,-1.71 -31.31,-17.54 -64.13,-16.3 -98.4,1.71 -19.35,-8.82 -38.73,-12.02 -58.08,-10.18 -39.8,12.33 -77.6,29.27 -112.77,50.15 32.16,-31.06 68.22,-58.08 107.4,-80.24z"/>
   <polygon class="fil6" points="674.11,76.71 681.85,90.24 697.12,93.42 686.64,104.96 688.32,120.47 674.09,114.09 659.86,120.47 661.53,104.96 651.06,93.42 666.32,90.24 674.07,76.71 "/>
  </g>
 </g>
</svg>
